<svg xmlns="http://www.w3.org/2000/svg" width="100" height="100" fill-rule="evenodd" clip-rule="evenodd" image-rendering="optimizeQuality" shape-rendering="geometricPrecision" text-rendering="geometricPrecision" viewBox="0 0 187 187" id="weechat"><rect width="187" height="187" fill="#2dc100" rx="18" ry="18"></rect><path fill="#fff" d="M72 32c27 0 48 18 50 41-25 0-46 18-46 41v5h-4c-3 0-7 0-10-1h-1c-3 0-6 1-6 1l-14 9s3-13 3-14c1-2-2-4-2-4-12-8-19-20-19-34 0-25 22-44 49-44zM55 60c3 0 6 3 6 7 0 3-3 6-6 6-4 0-6-3-6-6 0-4 2-7 6-7zm37 0c4 0 7 3 7 7 0 3-3 6-7 6-3 0-6-3-6-6 0-4 3-7 6-7z"></path><path fill="#fff" d="M122 76c24 0 43 17 43 38 0 11-6 21-14 28-2 1-2 2-2 3-1 1 2 10 2 10s-6-3-9-5c-3-1-7 0-7 0-4 1-8 2-13 2-23 0-42-17-42-38s19-38 42-38zm12 22c3 0 5 2 5 5s-2 5-5 5-5-2-5-5 2-5 5-5zm-31 0c3 0 5 2 5 5s-2 5-5 5-5-2-5-5 2-5 5-5z"></path></svg>